<svg width="800" height="600" viewBox="0 0 800 600" fill="none" xmlns="http://www.w3.org/2000/svg">
  <rect width="800" height="600" fill="#1E293B"/>
  <rect x="40" y="40" width="720" height="520" rx="8" fill="#0F172A"/>
  
  <!-- Code editor header -->
  <rect x="40" y="40" width="720" height="40" rx="8" fill="#1E293B"/>
  <circle cx="70" cy="60" r="6" fill="#EF4444"/>
  <circle cx="90" cy="60" r="6" fill="#EAB308"/>
  <circle cx="110" cy="60" r="6" fill="#22C55E"/>
  
  <!-- Code lines -->
  <rect x="70" y="110" width="200" height="3" rx="1.5" fill="#60A5FA"/>
  <rect x="280" y="110" width="100" height="3" rx="1.5" fill="#C084FC"/>
  <rect x="390" y="110" width="150" height="3" rx="1.5" fill="#34D399"/>
  
  <rect x="70" y="130" width="150" height="3" rx="1.5" fill="#60A5FA"/>
  <rect x="230" y="130" width="180" height="3" rx="1.5" fill="#F472B6"/>
  
  <rect x="90" y="150" width="250" height="3" rx="1.5" fill="#60A5FA"/>
  <rect x="350" y="150" width="80" height="3" rx="1.5" fill="#C084FC"/>
  
  <rect x="90" y="170" width="120" height="3" rx="1.5" fill="#60A5FA"/>
  <rect x="220" y="170" width="200" height="3" rx="1.5" fill="#34D399"/>
  <rect x="430" y="170" width="100" height="3" rx="1.5" fill="#F472B6"/>
  
  <rect x="110" y="190" width="180" height="3" rx="1.5" fill="#60A5FA"/>
  <rect x="300" y="190" width="150" height="3" rx="1.5" fill="#C084FC"/>
  
  <rect x="110" y="210" width="220" height="3" rx="1.5" fill="#60A5FA"/>
  <rect x="340" y="210" width="120" height="3" rx="1.5" fill="#34D399"/>
  
  <rect x="90" y="230" width="160" height="3" rx="1.5" fill="#60A5FA"/>
  <rect x="260" y="230" width="100" height="3" rx="1.5" fill="#F472B6"/>
  
  <!-- 3D cube in preview -->
  <g transform="translate(500, 300)">
    <path d="M0 -50 L43.3 -25 L43.3 25 L0 50 L-43.3 25 L-43.3 -25 Z" fill="#3B82F6" opacity="0.8"/>
    <path d="M0 -50 L43.3 -25 L43.3 25 L0 0 Z" fill="#60A5FA"/>
    <path d="M0 -50 L0 0 L-43.3 25 L-43.3 -25 Z" fill="#2563EB"/>
  </g>
  
  <!-- Three.js text -->
  <text x="400" y="450" font-family="Arial, sans-serif" font-size="24" fill="#94A3B8" text-anchor="middle">Three.js Code</text>
</svg>